<svg width="116" height="17" viewBox="0 0 116 17" fill="none" xmlns="http://www.w3.org/2000/svg">
<path d="M8.38708 5.96189C8.38708 4.54574 7.42832 3.32572 5.94703 3.32572H3.52902V8.5973H5.94703C7.42832 8.5973 8.38708 7.37805 8.38708 5.96189V5.96189ZM0 0.450289H6.3825C9.7593 0.450289 11.938 2.99936 11.938 5.96189C11.938 8.92442 9.7593 11.4727 6.3825 11.4727H3.52902V15.6992H0V0.450289Z" fill="#B0B5BB"/>
<path d="M22.1542 4.807L20.2806 11.0812H23.9838L22.1542 4.807ZM25.4439 15.6992L24.8563 13.8476H19.4317L18.8433 15.6992H15.0742L20.5207 0.450289H23.7665L29.2781 15.6992H25.4439Z" fill="#B0B5BB"/>
<path d="M35.2028 3.49992H31.7617V0.450289H42.1957V3.49992H38.7318V15.6992H35.2028V3.49992Z" fill="#B0B5BB"/>
<path d="M56.0746 5.96189C56.0746 4.54574 55.1158 3.32572 53.6344 3.32572H51.2162V8.5973H53.6344C55.1158 8.5973 56.0746 7.37805 56.0746 5.96189ZM47.6875 0.450289H54.0926C57.4687 0.450289 59.6474 2.99936 59.6474 5.96189C59.6474 8.0967 58.5144 9.99144 56.6188 10.8851L59.6694 15.6992H55.574L52.8718 11.4727H51.2162V15.6992H47.6875V0.450289" fill="#B0B5BB"/>
<path d="M69.1658 3.28255V6.74568H74.9385V9.51285H69.1658V12.8669H74.9385V15.6992H65.6367V0.450289H74.9385V3.28255H69.1658Z" fill="#B0B5BB"/>
<path d="M93.2166 8.01646C93.2166 5.51132 91.5169 3.18038 88.7507 3.18038C85.9621 3.18038 84.2849 5.51132 84.2849 8.01646C84.2849 10.5216 85.9621 12.8526 88.7507 12.8526C91.5169 12.8526 93.2166 10.5216 93.2166 8.01646ZM80.668 8.01646C80.668 3.8339 83.6745 -0.000285983 88.7507 -0.000285983C93.8041 -0.000285983 96.8106 3.8339 96.8106 8.01646C96.8106 12.199 93.8041 16.0332 88.7507 16.0332C83.6745 16.0332 80.668 12.199 80.668 8.01646Z" fill="#B0B5BB"/>
<path d="M111.866 10.3837V0.450289H115.373V15.6992H111.691L106.201 5.89599V15.6992H102.672V0.450289H106.353L111.866 10.3837Z" fill="#B0B5BB"/>
</svg>
